<svg width="1084" height="819" viewBox="0 0 1084 819" fill="none" xmlns="http://www.w3.org/2000/svg">
<g id="bzinka svg">
<path id="Vector" d="M897.665 197.484C871.705 153.62 820.345 151.576 820.345 151.576C820.345 151.576 770.299 145.176 738.194 211.981C708.27 274.249 666.971 334.37 731.545 348.947L743.209 312.643L750.433 351.65C759.627 352.311 768.85 352.469 778.062 352.122C847.216 349.889 913.074 352.775 910.954 327.96C908.135 294.971 922.643 239.69 897.665 197.484Z" fill="#2F2E41"/>
<path id="Vector_2" d="M791.111 289.288C800.056 309.074 805.697 332.66 809.065 358.859L880.881 354.37C864.37 330.974 858.888 304.12 865.171 273.578L791.111 289.288Z" fill="#FFB8B8"/>
<path id="Vector_3" opacity="0.2" d="M791.111 289.288C800.056 309.074 805.697 332.66 809.065 358.859L880.881 354.37C864.37 330.974 858.888 304.12 865.171 273.578L791.111 289.288Z" fill="black"/>
<path id="Vector_4" d="M457.908 666.023C457.908 666.023 420.739 685.933 439.6 702.931C458.461 719.929 483.376 680.431 483.376 680.431L457.908 666.023Z" fill="#FFB8B8"/>
<path id="Vector_5" d="M912.301 607.97L911.721 635.17L910.481 693.94L909.441 743.8L834.181 773.51L671.391 716.76L682.101 657.29L690.751 609.27L694.611 587.77L889.861 560.84L912.301 607.97Z" fill="#2F2E41"/>
<path id="Vector_6" d="M912.301 607.969L911.718 635.17C842.64 633.397 735.567 616.722 690.75 609.271L694.61 587.771L889.859 560.84L912.301 607.969Z" fill="#3F3D56"/>
<path id="Vector_7" d="M825.897 308.364C856.883 308.364 882.003 283.244 882.003 252.258C882.003 221.271 856.883 196.152 825.897 196.152C794.911 196.152 769.791 221.271 769.791 252.258C769.791 283.244 794.911 308.364 825.897 308.364Z" fill="#FFB8B8"/>
<path id="Vector_8" d="M933.621 638.267C933.621 638.267 940.354 698.861 899.958 694.373L893.225 633.778L857.317 597.87L756.327 595.626L682.267 665.198C682.267 665.198 680.022 593.382 688.999 586.649C697.976 579.917 718.174 564.207 718.174 564.207V552.986L657.58 429.553C657.58 429.553 693.488 355.493 722.663 353.248L760.815 351.004C760.815 351.004 774.28 344.272 774.28 342.027C774.28 339.783 772.036 321.829 783.257 326.318C783.257 326.318 784.267 303.292 796.094 310.316C796.094 310.316 833.326 339.491 871.119 311.595C871.119 311.595 888.737 308.364 886.492 317.341C884.248 326.318 886.492 333.05 890.981 333.05C895.469 333.05 915.667 339.783 915.667 344.272C915.667 345.237 917.126 354.528 919.415 368.509V368.532C927.741 419.498 947.087 532.787 947.087 532.787C947.087 532.787 967.285 561.963 933.621 638.267Z" fill="#757E61"/>
<path id="Vector_9" d="M673.29 418.331L657.58 429.552L513.949 613.58L437.645 674.174C437.645 674.174 480.285 667.442 471.308 703.349L733.884 552.986L673.29 418.331Z" fill="#757E61"/>
<path id="Vector_10" d="M919.414 368.509V368.532C916.43 386.082 819.164 382.423 805.699 382.423C792.233 382.423 781.012 380.179 767.547 371.202C754.081 362.225 760.814 351.004 760.814 351.004C760.814 351.004 772.279 342.271 772.279 340.027C772.279 337.783 770.035 319.829 781.256 324.318C781.256 324.318 782.266 301.292 794.093 308.316C794.093 308.316 833.325 339.491 871.118 311.595C871.118 311.595 888.736 308.364 886.491 317.341C884.247 326.318 886.491 333.05 890.98 333.05C895.468 333.05 915.666 339.783 915.666 344.271C915.666 345.236 917.125 354.528 919.414 368.509Z" fill="#3F3D56"/>
<path id="Vector_11" d="M907.811 284.799C907.811 284.799 889.858 246.647 871.904 264.601C853.95 282.555 892.102 309.486 892.102 309.486L907.811 284.799Z" fill="#FFB8B8"/>
<path id="Vector_12" d="M907.812 277.822C907.812 277.822 880.088 312.858 871.508 315.538C871.508 315.538 896.591 414.721 928.01 441.651L945.964 533.665C945.964 533.665 1022.27 502.246 1004.31 450.628C1004.13 450.112 1003.96 449.599 1003.78 449.089C988.787 406.103 968.099 365.321 942.265 327.835L907.812 277.822Z" fill="#e4c396"/>
<path id="Vector_13" opacity="0.2" d="M892.997 379.737L948.208 531.665L928.01 439.651L892.997 379.737Z" fill="black"/>
<path id="Vector_14" d="M886.188 193.255L835.447 166.677L765.377 177.55L750.88 241.58L786.968 240.192L797.05 216.668V239.804L813.701 239.163L823.366 201.712L829.407 241.58L888.604 240.372L886.188 193.255Z" fill="#2F2E41"/>
<path id="Vector_16" d="M387.191 508.354C359.693 493.026 360.458 468.733 365.943 451.054C368.374 443.256 372.02 435.89 376.747 429.229C401.493 394.2 403.73 371.445 401.248 358.524C398.553 344.494 389.907 338.733 389.82 338.677L390.91 337C391.294 337.25 400.358 343.289 403.212 358.147C406.928 377.496 398.574 401.799 378.38 430.383C373.775 436.873 370.222 444.048 367.853 451.646C362.588 468.619 361.838 491.933 388.164 506.608L387.191 508.354Z" fill="#2F2E41"/>
<path id="Vector_17" d="M510.908 286.355L509.934 284.608C536.261 269.932 535.511 246.619 530.246 229.646C527.876 222.049 524.323 214.873 519.718 208.383C499.524 179.799 491.17 155.496 494.886 136.147C497.74 121.289 506.804 115.25 507.189 115L508.28 116.676C508.192 116.733 499.503 122.569 496.835 136.604C494.381 149.517 496.642 172.252 521.352 207.229C526.078 213.89 529.724 221.256 532.156 229.053C537.64 246.733 538.406 271.026 510.908 286.355Z" fill="#2F2E41"/>
<g id="flower">
<path id="Vector_15" d="M450.895 693.496C416.015 674.052 394.301 647.505 386.356 614.594C380.456 590.158 382.152 562.661 391.394 532.866C398.245 510.899 408.518 490.149 421.833 471.382C492.471 371.396 498.846 306.244 491.756 269.195C483.982 228.572 458.725 211.701 458.47 211.536L459.561 209.859C459.822 210.028 485.744 227.292 493.705 268.739C498.295 292.633 496.136 319.879 487.288 349.72C476.276 386.857 454.804 428.179 423.467 472.536C410.273 491.132 400.094 511.692 393.304 533.458C378.146 582.325 376.001 649.455 451.868 691.75L450.895 693.496Z" fill="#2F2E41"/>

<path id="Vector_18" d="M510.265 434.569C503.227 434.581 496.394 432.197 490.891 427.809C485.387 423.422 481.541 417.292 479.984 410.428C478.427 403.564 479.252 396.375 482.323 390.042C485.395 383.71 490.53 378.611 496.884 375.584C511.984 368.389 557.275 378.922 559.196 379.374L560.41 379.66L559.867 380.783C559.008 382.559 538.65 424.363 523.548 431.558C519.4 433.54 514.862 434.569 510.265 434.569ZM512.787 375.079C506.645 375.079 501.262 375.714 497.744 377.39C490.801 380.697 485.455 386.628 482.884 393.877C480.313 401.126 480.727 409.099 484.034 416.043C487.342 422.987 493.273 428.332 500.522 430.903C507.771 433.474 515.744 433.061 522.688 429.753C535.825 423.494 554.096 387.875 557.508 381.042C552.049 379.83 529.584 375.079 512.787 375.079Z" fill="#2F2E41"/>
<path id="Vector_19" d="M457.593 302.999C447.58 302.999 428.433 293.517 427.554 293.079L426.438 292.522L427.224 291.553C427.896 290.726 443.79 271.254 452.729 269.319C457.165 268.359 461.801 269.2 465.617 271.658C469.433 274.116 472.117 277.989 473.077 282.425C474.037 286.861 473.196 291.498 470.738 295.314C468.28 299.13 464.407 301.813 459.971 302.774C459.188 302.932 458.391 303.007 457.593 302.999ZM429.586 291.84C434.302 294.091 452.363 302.376 459.548 300.818C463.463 299.968 466.881 297.598 469.05 294.228C471.218 290.859 471.96 286.766 471.112 282.85C470.264 278.934 467.896 275.515 464.528 273.344C461.16 271.173 457.068 270.429 453.151 271.274C445.964 272.83 432.948 287.841 429.586 291.84Z" fill="#2F2E41"/>
<path id="Vector_20" d="M297.858 538.277C290.956 538.167 284.07 537.573 277.25 536.501L276.019 536.301L276.482 535.143C276.878 534.152 286.275 510.841 294.237 506.34C296.194 505.234 298.349 504.524 300.58 504.25C302.81 503.977 305.073 504.146 307.239 504.747C309.404 505.349 311.43 506.37 313.201 507.755C314.972 509.139 316.452 510.858 317.558 512.815C318.665 514.771 319.374 516.926 319.648 519.157C319.921 521.388 319.752 523.651 319.151 525.816C318.55 527.982 317.528 530.008 316.144 531.778C314.759 533.549 313.04 535.03 311.084 536.136C308.223 537.753 303.186 538.277 297.858 538.277ZM278.823 534.715C283.994 535.464 303.698 538.013 310.099 534.396C313.589 532.423 316.152 529.144 317.224 525.282C318.297 521.419 317.791 517.289 315.818 513.799C313.845 510.309 310.567 507.746 306.704 506.674C302.842 505.601 298.711 506.107 295.222 508.08C288.822 511.698 280.847 529.897 278.823 534.715Z" fill="#2F2E41"/>
<path id="Vector_21" d="M350.2 709.864C352.306 706.148 355.802 703.42 359.919 702.28C364.036 701.141 368.437 701.682 372.155 703.786C375.873 705.89 378.603 709.384 379.746 713.5C380.888 717.616 380.35 722.017 378.249 725.737C373.866 733.482 349.939 743.045 349.939 743.045C349.939 743.045 345.817 717.609 350.2 709.864Z" fill="#757e61"/>
<path id="Vector_22" d="M198.79 722.146C201.525 718.861 205.452 716.798 209.708 716.409C213.964 716.02 218.201 717.338 221.485 720.073C224.769 722.807 226.833 726.735 227.222 730.991C227.611 735.247 226.293 739.483 223.558 742.768C217.863 749.607 192.614 754.748 192.614 754.748C192.614 754.748 193.095 728.985 198.79 722.146Z" fill="#757e61"/>
<path id="Vector_23" d="M194.94 391.297C199.117 390.392 203.482 391.184 207.075 393.499C210.668 395.813 213.195 399.459 214.099 403.637C215.003 407.814 214.211 412.179 211.897 415.772C209.583 419.365 205.936 421.892 201.759 422.796C193.061 424.679 170 413.184 170 413.184C170 413.184 186.241 393.18 194.94 391.297Z" fill="#757e61"/>
<path id="Vector_24" d="M379.129 285.327C385.009 290.688 388.518 298.165 388.884 306.113C389.251 314.061 386.445 321.829 381.084 327.709C375.723 333.588 368.247 337.097 360.299 337.464C352.351 337.83 344.582 335.024 338.703 329.664C326.46 318.5 319.014 271.112 319.014 271.112C319.014 271.112 366.886 274.164 379.129 285.327Z" fill="#757e61"/>
<path id="Vector_25" d="M399.618 231.812C397.466 235.113 394.685 237.958 391.433 240.184C388.182 242.41 384.523 243.974 380.667 244.786C376.811 245.598 372.833 245.642 368.96 244.916C365.087 244.19 361.395 242.708 358.094 240.555C354.794 238.402 351.95 235.62 349.725 232.367C347.5 229.115 345.938 225.456 345.128 221.6C344.317 217.743 344.274 213.765 345.002 209.892C345.729 206.019 347.212 202.328 349.367 199.028C358.42 185.152 403.998 170.194 403.998 170.194C403.998 170.194 408.671 217.936 399.618 231.812Z" fill="#757e61"/>
<path id="Vector_26" d="M388.618 138.812C386.466 142.113 383.685 144.958 380.433 147.184C377.182 149.41 373.523 150.974 369.667 151.786C365.811 152.598 361.833 152.642 357.96 151.916C354.087 151.19 350.395 149.708 347.094 147.555C343.794 145.402 340.95 142.62 338.725 139.367C336.5 136.115 334.938 132.456 334.128 128.6C333.317 124.743 333.274 120.765 334.002 116.892C334.729 113.019 336.212 109.328 338.367 106.028C347.42 92.1516 392.998 77.1941 392.998 77.1941C392.998 77.1941 397.671 124.936 388.618 138.812Z" fill="#757e61"/>
<path id="Vector_27" d="M279.13 204.287C282.042 206.942 284.401 210.143 286.075 213.71C287.749 217.276 288.704 221.138 288.885 225.073C289.067 229.008 288.471 232.941 287.133 236.647C285.795 240.352 283.74 243.757 281.085 246.669C278.431 249.58 275.229 251.94 271.663 253.613C268.096 255.287 264.235 256.242 260.3 256.423C256.364 256.605 252.431 256.01 248.726 254.671C245.021 253.333 241.615 251.278 238.704 248.623C226.461 237.46 219.015 190.071 219.015 190.071C219.015 190.071 266.887 193.124 279.13 204.287Z" fill="#757e61"/>
</g>
</g>
</svg>
