<svg width="408" height="581" viewBox="0 0 408 581" fill="none" xmlns="http://www.w3.org/2000/svg">
<path d="M147.86 51.4144C133.73 30.0712 134.575 4.82471 134.575 4.82471C134.575 4.82471 158.327 14.1825 172.457 35.5257C186.586 56.8689 185.742 82.1154 185.742 82.1154C185.742 82.1154 161.989 72.7576 147.86 51.4144Z" fill="#B46F36"/>
<path d="M347.636 103.252C323.045 110.042 299.011 101.439 299.011 101.439C299.011 101.439 314.848 81.8278 339.44 75.0376C364.031 68.2474 388.065 76.8499 388.065 76.8499C388.065 76.8499 372.228 96.4613 347.636 103.252Z" fill="#FF6584"/>
<path d="M170.812 410.061C146.122 403.076 130.004 383.338 130.004 383.338C130.004 383.338 153.916 374.925 178.606 381.91C203.296 388.894 219.414 408.632 219.414 408.632C219.414 408.632 195.502 417.045 170.812 410.061Z" fill="#B46F36"/>
<path d="M346.975 270.946C332.393 291.669 308.449 299.997 308.449 299.997C308.449 299.997 308.149 274.726 322.732 254.003C337.315 233.28 361.258 224.952 361.258 224.952C361.258 224.952 361.558 250.223 346.975 270.946Z" fill="#FF6584"/>
<path d="M362.804 185.112C338.213 191.902 314.179 183.299 314.179 183.299C314.179 183.299 330.016 163.688 354.608 156.898C379.199 150.108 403.233 158.71 403.233 158.71C403.233 158.71 387.396 178.322 362.804 185.112Z" fill="#B46F36"/>
<path d="M283.502 580.132L281.203 579.578C281.311 579.118 291.929 532.935 289.864 475.139C287.961 421.897 274.595 347.614 221.725 296.098C180.831 256.248 164.891 219.261 174.348 186.163C185.13 148.43 227.495 122.783 261.136 107.912C283.967 97.9448 307.7 90.1025 332.034 84.4849L332.548 86.7768C308.361 92.3627 284.77 100.16 262.077 110.07C228.904 124.739 187.151 149.963 176.619 186.828C167.417 219.036 183.146 255.24 223.369 294.435C246.982 317.444 264.835 346.8 276.431 381.686C285.695 409.556 291.009 440.999 292.224 475.14C294.292 533.234 283.611 579.67 283.502 580.132Z" fill="#3F3D56"/>
<path d="M274.67 383.74C274.635 383.073 271.745 316.485 324.196 273.281L325.715 275.091C274.153 317.562 276.992 382.987 277.027 383.644L274.67 383.74Z" fill="#3F3D56"/>
<path d="M283.213 483.239C282.79 482.568 240.339 415.925 192.72 398.702L193.506 396.501C241.901 414.007 284.782 481.335 285.209 482.013L283.213 483.239Z" fill="#3F3D56"/>
<path d="M303.863 181.09C247.698 181.09 197.337 152.019 196.747 151.674L197.93 149.66C198.615 150.061 267.195 189.63 333.054 175.834L333.566 178.126C323.806 180.133 313.852 181.126 303.863 181.09V181.09Z" fill="#3F3D56"/>
<path d="M261.401 108.724C249.762 108.723 238.146 107.392 226.784 104.757C201.438 98.5442 186.789 85.6272 184.422 67.4024L186.762 67.1279C192.182 108.853 263.525 106.373 264.239 106.341L264.365 108.681C264.321 108.682 263.254 108.724 261.401 108.724Z" fill="#3F3D56"/>
<path d="M300.196 300.475L300.177 298.827C300.174 298.57 300.041 272.941 314.669 252.153C329.297 231.366 353.521 222.759 353.764 222.675L355.325 222.132L355.345 223.78C355.348 224.036 355.48 249.665 340.852 270.453C326.224 291.24 302.001 299.847 301.758 299.931L300.196 300.475ZM352.944 225.517C347.358 227.803 328.629 236.428 316.609 253.509C304.576 270.609 302.829 291.08 302.578 297.089C308.164 294.803 326.893 286.18 338.913 269.097C350.946 251.997 352.693 231.526 352.944 225.517Z" fill="#3F3D56"/>
<path d="M340.218 185.476C330.418 185.477 320.661 183.97 311.295 181.007L309.727 180.446L310.76 179.167C310.921 178.968 327.117 159.187 351.785 152.375C376.453 145.566 400.883 154.129 401.127 154.215L402.694 154.776L401.661 156.055C401.5 156.254 385.304 176.036 360.637 182.847C353.991 184.633 347.122 185.518 340.218 185.476V185.476ZM313.744 179.336C319.568 181.079 339.706 186.187 359.981 180.589C380.273 174.987 394.659 160.347 398.677 155.886C392.852 154.143 372.711 149.034 352.44 154.633C332.149 160.236 317.762 174.875 313.744 179.336V179.336Z" fill="#3F3D56"/>
<path d="M327.479 101.153C317.68 101.155 307.923 99.6476 298.556 96.685L296.989 96.124L298.022 94.8448C298.183 94.6458 314.379 74.8644 339.046 68.0531C363.714 61.2424 388.145 69.8059 388.388 69.8927L389.956 70.4537L388.923 71.7329C388.762 71.9319 372.566 91.7134 347.898 98.5247C341.253 100.311 334.384 101.195 327.479 101.153V101.153ZM301.006 95.0141C306.83 96.7565 326.969 101.864 347.243 96.267C367.534 90.6646 381.921 76.0247 385.939 71.5637C380.113 69.8201 359.974 64.7118 339.702 70.3107C319.41 75.9131 305.024 90.5531 301.006 95.0141L301.006 95.0141Z" fill="#3F3D56"/>
<path d="M191.613 409.295C184.472 409.341 177.349 408.401 170.448 406.503C145.681 399.496 129.202 379.586 129.038 379.384L127.987 378.098L129.546 377.549C129.788 377.465 154.099 369.097 178.865 376.098C203.632 383.105 220.111 403.015 220.276 403.217L221.326 404.503L219.767 405.052C210.668 407.872 201.175 409.303 191.613 409.295V409.295ZM171.072 404.249C191.422 410.01 211.491 405.06 217.292 403.362C213.205 398.867 198.592 384.108 178.242 378.352C157.893 372.593 137.823 377.542 132.021 379.239C136.109 383.734 150.721 398.493 171.072 404.249L171.072 404.249Z" fill="#3F3D56"/>
<path d="M191.56 81.4716L190.011 80.8609C189.769 80.766 165.742 71.1172 151.569 49.7071C137.396 28.2977 138.08 2.68625 138.088 2.43004L138.143 0.783691L139.692 1.39443C139.933 1.48935 163.96 11.1382 178.134 32.5482C192.307 53.9577 191.623 79.5691 191.614 79.8253L191.56 81.4716ZM153.536 48.4365C165.183 66.0283 183.716 75.4569 189.251 77.9845C189.126 71.9624 187.812 51.4107 176.166 33.8189C164.52 16.2271 145.987 6.79842 140.452 4.27085C140.577 10.293 141.891 30.8447 153.536 48.4365V48.4365Z" fill="#3F3D56"/>
<path d="M52.5448 219.65C77.6574 224.859 95.1515 243.411 95.1515 243.411C95.1515 243.411 71.9302 253.516 46.8176 248.307C21.705 243.097 4.21091 224.546 4.21091 224.546C4.21091 224.546 27.4323 214.441 52.5448 219.65Z" fill="#B46F36"/>
<path d="M103.347 250.064C153.53 275.661 185.079 324.291 185.446 324.864L183.457 326.104C183.032 325.437 140.058 259.233 74.8357 241.403L75.4387 239.146C85.0864 241.821 94.4394 245.48 103.347 250.064V250.064Z" fill="#3F3D56"/>
<path d="M72.8935 229.622C81.6498 234.087 89.6704 239.865 96.6693 246.751L97.8092 247.96L96.2955 248.62C96.0593 248.722 72.4383 258.814 47.2479 253.588C22.0565 248.359 4.18952 229.663 4.01242 229.476L2.87249 228.266L4.38616 227.607C4.6224 227.504 28.2434 217.413 53.4337 222.638C60.1979 224.089 66.7436 226.438 72.8935 229.622V229.622ZM93.7062 247.109C89.3061 242.913 73.6751 229.223 52.9761 224.932C32.2773 220.637 12.6345 227.009 6.97547 229.117C11.3751 233.312 27.005 247.001 47.7056 251.295C68.4044 255.589 88.0472 249.218 93.7062 247.109Z" fill="#3F3D56"/>
</svg>
